<?xml version="1.0" encoding="UTF-8"?>
<svg width="48" height="48" viewBox="0 0 48 48" fill="none" xmlns="http://www.w3.org/2000/svg">
  <path d="M38 18C38 18 36 16 32 16C28 16 26 18 24 18C22 18 20 16 16 16C12 16 10 18 10 18C10 18 8 20 8 24C8 28 10 30 10 30C10 30 12 32 16 32C20 32 22 30 24 30C26 30 28 32 32 32C36 32 38 30 38 30C38 30 40 28 40 24C40 20 38 18 38 18Z" fill="#667eea"/>
  <path d="M24 18C24 18 26 16 30 16C32 16 34 17 35 18C36 19 37 20 37 22C37 24 36 25 35 26C34 27 32 28 30 28C26 28 24 26 24 24V18Z" fill="#ffffff"/>
  <circle cx="28" cy="22" r="2" fill="#2c3e50"/>
  <path d="M24 24L20 28L16 26L18 22L24 24Z" fill="#27ae60"/>
  <path d="M24 30C24 30 26 32 28 34C30 36 32 37 34 36C36 35 37 33 36 31C35 29 33 28 31 28C29 28 27 29 26 30L24 30Z" fill="#e8f4fd"/>
</svg>